<svg width="100%" height="100%" viewBox="0 0 2000 1000" xmlns="http://www.w3.org/2000/svg">
  <defs>
    <radialGradient id="glow" cx="50%" cy="50%" r="50%" fx="50%" fy="50%">
      <stop offset="0%" style="stop-color: white; stop-opacity: 1" />
      <stop offset="100%" style="stop-color: white; stop-opacity: 0" />
    </radialGradient>
  </defs>
  <rect width="100%" height="100%" fill="black" />
  <circle cx="150" cy="200" r="2" fill="url(#glow)" />
  <circle cx="300" cy="400" r="1.5" fill="url(#glow)" />
  <circle cx="450" cy="600" r="2.5" fill="url(#glow)" />
  <circle cx="600" cy="200" r="2" fill="url(#glow)" />
  <circle cx="750" cy="500" r="3" fill="url(#glow)" />
  <circle cx="900" cy="700" r="1.5" fill="url(#glow)" />
  <circle cx="1050" cy="300" r="2.2" fill="url(#glow)" />
  <circle cx="1200" cy="800" r="2" fill="url(#glow)" />
  <circle cx="1350" cy="100" r="1.8" fill="url(#glow)" />
  <circle cx="1500" cy="400" r="2.5" fill="url(#glow)" />
  <circle cx="1650" cy="700" r="1.5" fill="url(#glow)" />
  <circle cx="1800" cy="200" r="2" fill="url(#glow)" />
  <circle cx="1950" cy="600" r="3" fill="url(#glow)" />
  <circle cx="200" cy="800" r="2" fill="url(#glow)" />
  <circle cx="500" cy="900" r="1.8" fill="url(#glow)" />
  <circle cx="800" cy="300" r="2.2" fill="url(#glow)" />
  <circle cx="1000" cy="500" r="2" fill="url(#glow)" />
  <circle cx="1250" cy="650" r="1.5" fill="url(#glow)" />
  <circle cx="1500" cy="800" r="2.2" fill="url(#glow)" />
  <circle cx="1750" cy="900" r="1.8" fill="url(#glow)" />
  <circle cx="500" cy="100" r="2.5" fill="url(#glow)" />
  <circle cx="750" cy="200" r="1.5" fill="url(#glow)" />
  <circle cx="1000" cy="300" r="2" fill="url(#glow)" />
  <circle cx="1250" cy="400" r="2.5" fill="url(#glow)" />
  <circle cx="1500" cy="500" r="3" fill="url(#glow)" />
  <circle cx="1750" cy="600" r="1.5" fill="url(#glow)" />
  <circle cx="2000" cy="700" r="2" fill="url(#glow)" />
  
  <!-- Additional stars -->
  <circle cx="100" cy="150" r="1.5" fill="url(#glow)" />
  <circle cx="250" cy="350" r="2" fill="url(#glow)" />
  <circle cx="400" cy="550" r="2.5" fill="url(#glow)" />
  <circle cx="550" cy="750" r="3" fill="url(#glow)" />
  <circle cx="700" cy="950" r="1.8" fill="url(#glow)" />
  <circle cx="850" cy="150" r="2" fill="url(#glow)" />
  <circle cx="1000" cy="350" r="2.5" fill="url(#glow)" />
  <circle cx="1150" cy="550" r="1.5" fill="url(#glow)" />
  <circle cx="1300" cy="750" r="2" fill="url(#glow)" />
  <circle cx="1450" cy="950" r="2.5" fill="url(#glow)" />
  <circle cx="1600" cy="150" r="3" fill="url(#glow)" />
  <circle cx="1750" cy="350" r="1.5" fill="url(#glow)" />
  <circle cx="1900" cy="550" r="2" fill="url(#glow)" />
  <circle cx="2050" cy="750" r="2.5" fill="url(#glow)" />
  <circle cx="2200" cy="950" r="1.8" fill="url(#glow)" />
  <circle cx="2350" cy="150" r="2" fill="url(#glow)" />
  <circle cx="2500" cy="350" r="2.5" fill="url(#glow)" />
  <circle cx="2650" cy="550" r="1.5" fill="url(#glow)" />
  <circle cx="2800" cy="750" r="2" fill="url(#glow)" />
  <circle cx="2950" cy="950" r="2.5" fill="url(#glow)" />
  <circle cx="3100" cy="150" r="3" fill="url(#glow)" />
  <circle cx="3250" cy="350" r="1.5" fill="url(#glow)" />
  <circle cx="3400" cy="550" r="2" fill="url(#glow)" />
  <circle cx="3550" cy="750" r="2.5" fill="url(#glow)" />
  <circle cx="3700" cy="950" r="1.8" fill="url(#glow)" />
  <circle cx="3850" cy="150" r="2" fill="url(#glow)" />
  <circle cx="4000" cy="350" r="2.5" fill="url(#glow)" />
  <circle cx="4150" cy="550" r="1.5" fill="url(#glow)" />
  <circle cx="4300" cy="750" r="2" fill="url(#glow)" />
  <circle cx="4450" cy="950" r="2.5" fill="url(#glow)" />
  <circle cx="4600" cy="150" r="3" fill="url(#glow)" />
  <circle cx="4750" cy="350" r="1.5" fill="url(#glow)" />
  <circle cx="4900" cy="550" r="2" fill="url(#glow)" />
  <circle cx="5050" cy="750" r="2.5" fill="url(#glow)" />
  <circle cx="5200" cy="950" r="1.8" fill="url(#glow)" />
  <circle cx="5350" cy="150" r="2" fill="url(#glow)" />
  <circle cx="5500" cy="350" r="2.5" fill="url(#glow)" />
  <circle cx="5650" cy="550" r="1.5" fill="url(#glow)" />
  <circle cx="5800" cy="750" r="2" fill="url(#glow)" />
  <circle cx="5950" cy="950" r="2.5" fill="url(#glow)" />
  <circle cx="6100" cy="150" r="3" fill="url(#glow)" />
  <circle cx="6250" cy="350" r="1.5" fill="url(#glow)" />
  <circle cx="6400" cy="550" r="2" fill="url(#glow)" />
  <circle cx="6550" cy="750" r="2.5" fill="url(#glow)" />
  <circle cx="6700" cy="950" r="1.8" fill="url(#glow)" />
  <circle cx="6850" cy="150" r="2" fill="url(#glow)" />
  <circle cx="7000" cy="350" r="2.5" fill="url(#glow)" />
  <circle cx="7150" cy="550" r="1.5" fill="url(#glow)" />
  <circle cx="7300" cy="750" r="2" fill="url(#glow)" />
  <circle cx="7450" cy="950" r="2.5" fill="url(#glow)" />
  <circle cx="7600" cy="150" r="3" fill="url(#glow)" />
  <circle cx="7750" cy="350" r="1.5" fill="url(#glow)" />
  <circle cx="7900" cy="550" r="2" fill="url(#glow)" />
  <circle cx="8050" cy="750" r="2.5" fill="url(#glow)" />
  <circle cx="8200" cy="950" r="1.8" fill="url(#glow)" />
  <circle cx="8350" cy="150" r="2" fill="url(#glow)" />
  <circle cx="8500" cy="350" r="2.5" fill="url(#glow)" />
  <circle cx="8650" cy="550" r="1.5" fill="url(#glow)" />
  <circle cx="8800" cy="750" r="2" fill="url(#glow)" />
  <circle cx="8950" cy="950" r="2.5" fill="url(#glow)" />
  <circle cx="9100" cy="150" r="3" fill="url(#glow)" />
  <circle cx="9250" cy="350" r="1.5" fill="url(#glow)" />
  <circle cx="9400" cy="550" r="2" fill="url(#glow)" />
  <circle cx="9550" cy="750" r="2.5" fill="url(#glow)" />
  <circle cx="9700" cy="950" r="1.8" fill="url(#glow)" />
  <circle cx="9850" cy="150" r="2" fill="url(#glow)" />
  <circle cx="10000" cy="350" r="2.5" fill="url(#glow)" />
  <circle cx="10150" cy="550" r="1.5" fill="url(#glow)" />
  <circle cx="10300" cy="750" r="2" fill="url(#glow)" />
  <circle cx="10450" cy="950" r="2.5" fill="url(#glow)" />
  <circle cx="10600" cy="150" r="3" fill="url(#glow)" />
  <circle cx="10750" cy="350" r="1.5" fill="url(#glow)" />
  <circle cx="10900" cy="550" r="2" fill="url(#glow)" />
  <circle cx="11050" cy="750" r="2.5" fill="url(#glow)" />
  <circle cx="11200" cy="950" r="1.8" fill="url(#glow)" />
  <circle cx="11350" cy="150" r="2" fill="url(#glow)" />
  <circle cx="11500" cy="350" r="2.5" fill="url(#glow)" />
  <circle cx="11650" cy="550" r="1.5" fill="url(#glow)" />
  <circle cx="11800" cy="750" r="2" fill="url(#glow)" />
  <circle cx="11950" cy="950" r="2.5" fill="url(#glow)" />
</svg>
